<?xml version="1.0" encoding="utf-8"?>
<!-- Generator: Adobe Illustrator 23.0.0, SVG Export Plug-In . SVG Version: 6.00 Build 0)  -->
<svg version="1.1" id="Capa_1" xmlns="http://www.w3.org/2000/svg" xmlns:xlink="http://www.w3.org/1999/xlink" x="0px" y="0px"
	 viewBox="0 0 340 300" style="enable-background:new 0 0 340 300;" xml:space="preserve">
<style type="text/css">
	.st0{fill:#F6D436;}
	.st1{fill:#462B17;}
	.st2{fill:#FFFDFB;}
	.st3{fill:#B0E2F1;}
	.st4{fill:#FDFAF3;}
	.st5{fill:#794833;}
	.st6{fill:#FB796B;}
	.st7{fill:#A0D29D;}
</style>
<g>
	<g>
		<g>
			<g>
				<g>
					<g>
						<path class="st0" d="M222.13,173.49l12.18,12.18l25.81-25.81c3.36-3.36,3.36-8.82,0-12.18v0c-3.36-3.36-8.82-3.36-12.18,0
							L222.13,173.49z"/>
						<path class="st1" d="M234.31,191.44l28.69-28.7c2.4-2.4,3.72-5.59,3.72-8.98c0-3.39-1.32-6.58-3.72-8.98
							c-4.95-4.95-13-4.95-17.95,0l-28.69,28.69L234.31,191.44z M254.03,149.24c1.16,0,2.32,0.44,3.2,1.32
							c0.86,0.86,1.33,1.99,1.33,3.2c0,1.21-0.47,2.35-1.33,3.2l-22.92,22.92l-6.4-6.4l22.92-22.92
							C251.71,149.69,252.87,149.24,254.03,149.24z"/>
					</g>
					<g>
						<path class="st0" d="M235.05,218.3l12.18,12.18l25.81-25.81c3.36-3.36,3.36-8.82,0-12.18l0,0c-3.36-3.36-8.82-3.36-12.18,0
							L235.05,218.3z"/>
						<path class="st1" d="M247.23,236.26l28.69-28.7c2.4-2.4,3.72-5.58,3.72-8.97c0-3.39-1.32-6.58-3.72-8.98
							c-2.4-2.4-5.58-3.72-8.97-3.72c-3.39,0-6.58,1.32-8.98,3.72l-28.69,28.69L247.23,236.26z M266.95,194.06
							c1.21,0,2.34,0.47,3.2,1.33c0.86,0.86,1.33,1.99,1.33,3.2c0,1.21-0.47,2.35-1.33,3.2l-22.92,22.92l-6.4-6.4l22.92-22.92
							C264.6,194.53,265.74,194.06,266.95,194.06z"/>
					</g>
					<g>
						<path class="st2" d="M179.27,158.77l68.63,104.64c2.17,3.3,6.82,3.78,9.61,0.99l8.22-8.22c1.58-1.58,2.19-3.89,1.6-6.05
							l-38.36-139.75c-0.27-0.99-1.5-1.31-2.23-0.59l-47.31,47.31C179,157.54,178.93,158.24,179.27,158.77z"/>
						<path class="st1" d="M253.12,270.3c2.72,0,5.33-1.07,7.28-3.02l8.22-8.22c2.62-2.62,3.63-6.45,2.65-10.02L232.91,109.3
							c-0.51-1.85-1.98-3.31-3.84-3.8c-1.86-0.49-3.85,0.05-5.21,1.4l-47.31,47.31c-1.8,1.8-2.1,4.66-0.7,6.79l0,0l68.63,104.64
							c1.71,2.6,4.47,4.28,7.57,4.6C252.41,270.28,252.77,270.3,253.12,270.3z M226.29,116.02l37.1,135.19
							c0.2,0.74-0.01,1.54-0.55,2.09l-8.22,8.22c-0.63,0.63-1.36,0.65-1.74,0.62c-0.38-0.04-1.09-0.22-1.58-0.96l-67.4-102.77
							L226.29,116.02z M182.69,156.53C182.69,156.53,182.69,156.53,182.69,156.53L182.69,156.53L182.69,156.53z"/>
					</g>
				</g>
				<g>
					<g>
						<path class="st0" d="M138.8,90.16l-12.18-12.18l25.81-25.81c3.36-3.36,8.81-3.36,12.18,0l0,0c3.36,3.36,3.36,8.81,0,12.18
							L138.8,90.16z"/>
						<path class="st1" d="M138.81,95.94l28.69-28.69c4.95-4.95,4.95-13,0-17.95c-4.95-4.95-13-4.95-17.95,0l-28.69,28.69
							L138.81,95.94z M158.52,53.74c1.16,0,2.32,0.44,3.2,1.32c1.77,1.76,1.77,4.64,0,6.4l-22.92,22.92l-6.41-6.4l22.92-22.92
							C156.2,54.18,157.36,53.74,158.52,53.74z"/>
					</g>
					<g>
						<path class="st0" d="M93.99,77.25L81.81,65.07l25.81-25.81c3.36-3.36,8.81-3.36,12.18,0l0,0c3.36,3.36,3.36,8.81,0,12.18
							L93.99,77.25z"/>
						<path class="st1" d="M93.99,83.02l28.69-28.69c4.95-4.95,4.95-13,0-17.95c-4.95-4.95-13-4.95-17.95,0L76.04,65.07L93.99,83.02
							z M113.71,40.82c1.16,0,2.32,0.44,3.2,1.32c1.76,1.77,1.76,4.64,0,6.4L93.99,71.47l-6.41-6.4l22.92-22.92
							C111.39,41.26,112.55,40.82,113.71,40.82z"/>
					</g>
					<g>
						<path class="st2" d="M153.53,133.02L48.89,64.39c-3.3-2.17-3.78-6.82-0.99-9.61l8.22-8.22c1.58-1.58,3.89-2.19,6.05-1.6
							l139.75,38.36c0.99,0.27,1.31,1.5,0.59,2.23l-47.31,47.31C154.75,133.3,154.06,133.37,153.53,133.02z"/>
						<path class="st1" d="M154.25,137.32c1.41,0,2.8-0.54,3.84-1.58l47.3-47.3c1.36-1.36,1.9-3.35,1.41-5.21
							c-0.49-1.86-1.95-3.33-3.81-3.84L63.25,41.02c-3.57-0.98-7.41,0.04-10.02,2.65l-8.22,8.22c-2.2,2.2-3.28,5.25-2.96,8.35
							c0.32,3.1,2,5.86,4.6,7.57l104.65,68.63C152.2,137.03,153.23,137.32,154.25,137.32z M155.76,129.6
							C155.76,129.6,155.76,129.6,155.76,129.6L155.76,129.6z M196.27,86l-42.38,42.38L51.12,60.98c-0.74-0.49-0.92-1.19-0.96-1.57
							c-0.04-0.38-0.01-1.11,0.62-1.74L59,49.45c0.54-0.54,1.34-0.75,2.09-0.55L196.27,86z"/>
					</g>
				</g>
			</g>
			<g>
				<path class="st3" d="M270.51,29.11c12.14-4.68,24.05,7.23,19.37,19.37c-9.71,25.16-20.03,43.39-43.61,66.97l-26.21,26.21
					l-111.68,93.28c-8.43,7.04-18.33,12.1-28.98,14.8l0,0c-6.13,1.56-11.7-4.01-10.15-10.15l0,0c2.7-10.65,7.76-20.55,14.8-28.98
					l93.28-111.68l26.21-26.21C227.12,49.14,245.35,38.82,270.51,29.11z"/>
				<path class="st1" d="M77.3,254.08c1.03,0,2.07-0.13,3.1-0.39c11.17-2.83,21.75-8.24,30.6-15.62l111.95-93.53l26.21-26.21
					c24.71-24.7,35.04-43.78,44.53-68.39c2.76-7.14,1.11-14.94-4.3-20.35c-5.41-5.41-13.2-7.06-20.35-4.3l0,0
					c-24.61,9.5-43.69,19.83-68.39,44.53L174.2,96.31L80.92,207.99c-7.39,8.85-12.79,19.43-15.62,30.59
					c-1.09,4.29,0.13,8.72,3.26,11.85C70.93,252.81,74.06,254.08,77.3,254.08z M217.3,138.64l-111.54,93.16
					c-7.91,6.61-17.37,11.44-27.37,13.97c-2.13,0.54-3.55-0.6-4.07-1.12c-0.52-0.52-1.66-1.95-1.12-4.07
					c2.53-9.99,7.36-19.45,13.98-27.37l93.16-111.54l26.08-26.08c23.68-23.68,41.97-33.58,65.56-42.69c4.15-1.6,8.5-0.68,11.63,2.45
					c3.14,3.14,4.06,7.49,2.46,11.63c-9.1,23.59-19.01,41.87-42.69,65.56L217.3,138.64z"/>
			</g>
			<g>
				<path class="st0" d="M47.73,207.81l35.82,25.81c0.7,0.5,1.31,1.12,1.82,1.82l25.81,35.82c1.18,1.63,3.53,1.82,4.95,0.4
					l9.52-9.53c4.03-4.03,5.56-9.93,4.01-15.41l-11.53-40.71c-0.71-2.5-2.66-4.45-5.16-5.16l-40.71-11.53
					c-5.48-1.55-11.38-0.02-15.41,4.01l-9.52,9.52C45.91,204.28,46.1,206.64,47.73,207.81z"/>
				<path class="st1" d="M113.83,276.7c1.94,0,3.81-0.77,5.19-2.15l9.52-9.52c5.07-5.07,7.01-12.51,5.05-19.41l-11.53-40.71
					c-1.11-3.9-4.09-6.88-7.98-7.98l-40.71-11.53c-6.9-1.95-14.34-0.02-19.41,5.05l-9.53,9.53c-1.53,1.52-2.3,3.63-2.13,5.78
					c0.17,2.15,1.28,4.11,3.03,5.37l35.82,25.81c0.35,0.25,0.65,0.55,0.9,0.9l25.81,35.81c1.26,1.75,3.22,2.85,5.37,3.03
					C113.43,276.69,113.63,276.7,113.83,276.7z M67.98,192.81c1.06,0,2.12,0.14,3.17,0.44l40.71,11.53c1.15,0.32,2.03,1.2,2.35,2.35
					l11.53,40.71c1.15,4.06,0.01,8.43-2.97,11.41l-8.84,8.84l-25.25-35.04c-0.77-1.06-1.69-1.98-2.74-2.74L50.9,205.06l8.84-8.84
					C61.96,194,64.93,192.81,67.98,192.81z"/>
			</g>
		</g>
		<path class="st4" d="M210.02,90.1L210.02,90.1c-1.67-1.51-4.25-1.38-5.77,0.29l-45.97,50.89c-1.51,1.67-1.38,4.26,0.29,5.77l0,0
			c1.67,1.51,4.25,1.38,5.77-0.29l45.97-50.89C211.82,94.19,211.69,91.61,210.02,90.1z"/>
		<path class="st4" d="M233.97,63.58L233.97,63.58c-1.67-1.51-4.25-1.38-5.77,0.29l-12.5,13.84c-1.51,1.67-1.38,4.25,0.29,5.77l0,0
			c1.67,1.51,4.25,1.38,5.77-0.29l12.5-13.84C235.77,67.67,235.64,65.09,233.97,63.58z"/>
	</g>
</g>
</svg>
