<?xml version="1.0" encoding="utf-8"?>
<!-- Generator: Adobe Illustrator 22.0.0, SVG Export Plug-In . SVG Version: 6.00 Build 0)  -->
<svg version="1.1" id="Capa_1" xmlns="http://www.w3.org/2000/svg" xmlns:xlink="http://www.w3.org/1999/xlink" x="0px" y="0px"
	 viewBox="0 0 132.8 115.5" style="enable-background:new 0 0 132.8 115.5;" xml:space="preserve">
<style type="text/css">
	.st0{fill:#FFFFFF;}
</style>
<path id="XMLID_2_" class="st0" d="M57.2,14c0,0-1.5,1.3-3.7,1.5c-2.2,0.3-13.6-0.3-26.1,7.1S8.3,39.4,6.8,42.2
	c-1.5,2.7-1.8,2.8-2,2.6c-0.3-0.2,0.3-2.8,1.3-5.2s3.9-9.9,9-16.3s16.4-15,25.6-18.6S51.4,0.6,53,1c1.6,0.4,0.3,3,1.1,6.8
	S57.2,12.2,57.2,14z"/>
<path id="XMLID_3_" class="st0" d="M65.1,33.7l-4.5,15c0,0-16.2-3.8-31.6-1S7,58.4,4,66.8c0,0-1.5,6.5-3.1,6.5s-1-7.1,0.7-11.5
	s5.6-13.6,19.6-21.6S57.3,33.3,65.1,33.7z"/>
<path id="XMLID_5_" class="st0" d="M63.9,73.9c0,0-4.6,6.5-2.8,10.2c1.7,3.6,3.5,5.8,6.2,8s2.4,4.7,1.3,10.2c0,0-16.3-12-24.9-16.5
	s-18.9-8-26.9-6s-8.4,6.5-7.6,10.8c0.8,4.3,1.8,6.3,0.9,6.8c-0.8,0.4-5.3-4.6-5.8-11.1c-0.4-6.5,0.3-11.8,7.3-16.7
	C18.6,64.6,43.5,64,63.9,73.9z"/>
<path id="XMLID_6_" class="st0" d="M100.1,60.8c0,0-2.8,0.3-5.1-2.6c-2.2-3-5.2-7.7-7.5-10.1c-2.3-2.3-6.6-3.5-8.9-0.5
	s-7.1,12.2-10.1,12.1c-3-0.1-4.1-3.7-3.2-8S68,41,70,35.7s3.3-8.2,0.3-13.6s-8.7-9.2-11.1-14.5s-0.1-6.8,2.4-5.7s9.2,8,13.5,10.5
	S85,15.2,93,16.1s9.5,1.1,9.4,4c-0.1,3-4.9,5.1-7.7,8.2s-1.6,9.2,0.4,13.5S101.4,53,100.1,60.8z"/>
<path id="XMLID_4_" class="st0" d="M85.6,0c0,0,3,0,3.4,4.7s-0.3,7.4-3.4,8c-3.1,0.6-6.2-0.1-6.3-5S80.5,0.1,85.6,0z"/>
<path id="XMLID_8_" class="st0" d="M65.8,80.4c0,0,3.2-0.2,5.6,0.1c2.3,0.3,5.6,0.7,7.9-0.6c2.3-1.3,4.8-3.9,5.7-4.2
	s1.2-0.2,1.2,0.9s0.1,2.9-0.8,4.9c-1,2-2.1,3.9-1.4,7.2c0.7,3.3,2.3,9,3.4,11.6c1.1,2.5,1.3,6.5,0.9,8.1l-7.2-6.5
	c0,0-3.8,5.4-4.2,7.8c-0.4,2.4-1.4,4.9-2.6,5.8c0,0,0.2-9.7,0.1-10.7c0-1,0.1-6,0-9.2s-0.7-6.6-3.2-7.9S65.8,84.8,65.8,80.4z"/>
<path id="XMLID_9_" class="st0" d="M75.5,67.1c0,0,3.5-0.3,4.1,2.5s0.4,5.4-1.2,6.8c-1.6,1.3-4.3,1-5.7-0.7
	c-1.4-1.7-1.2-4.3-0.9-5.7C72.1,68.7,73.7,67.3,75.5,67.1z"/>
<path id="XMLID_7_" class="st0" d="M132.5,54.4c0,0,1,3.8-1.3,5.8c-2.4,2-9.3,4.3-11,10.3c-1.8,6-1.8,14.9-3.3,20.3
	s-3.2,6.8-3.2,6.8s-1.2,0-1.9-2.4s-4.4-9.4-4.9-10.8s-0.9-2.6-0.9-2.6s-2.7,0.8-7.4,4.9c-4.8,4.1-6.6,4-6.6,4s-0.9-3.6,1.5-7.6
	s8.2-11.4,10.1-13.8c1.9-2.3,5.6-8.3,4.2-12.6s-5.1-12-3-16.4c0,0,6.1,2.9,6.9,3.8s2.4,4.3,6.9,7.6s7,3.2,8.9,2.8
	C129.3,54.3,132.5,54.4,132.5,54.4z"/>
<path id="XMLID_10_" class="st0" d="M122.4,35.3c0,0,2.7,0.5,2.6,5.6c-0.1,5.1-1.6,8.7-3.9,8.9s-3.5-1.6-3.4-6.6
	C117.7,38,119.2,34.3,122.4,35.3z"/>
</svg>
