<?xml version="1.0" encoding="utf-8"?>
<!-- Generator: Adobe Illustrator 22.0.0, SVG Export Plug-In . SVG Version: 6.00 Build 0)  -->
<svg version="1.1" id="Capa_1" xmlns="http://www.w3.org/2000/svg" xmlns:xlink="http://www.w3.org/1999/xlink" x="0px" y="0px"
	 viewBox="0 0 248.7 193.4" style="enable-background:new 0 0 248.7 193.4;" xml:space="preserve">
<style type="text/css">
	.st0{fill:#FFFFFF;}
</style>
<g id="XMLID_1_">
	<path id="XMLID_2_" class="st0" d="M61.1,14c0,0-1.5,1.3-3.7,1.5c-2.2,0.3-13.6-0.3-26.1,7.1S12.2,39.4,10.7,42.2
		c-1.5,2.7-1.8,2.8-2,2.6C8.4,44.6,9,42,10,39.6s3.9-9.9,9-16.3s16.4-15,25.6-18.6S55.3,0.6,56.9,1c1.6,0.4,0.3,3,1.1,6.8
		S61.1,12.2,61.1,14z"/>
	<path id="XMLID_3_" class="st0" d="M69,33.7l-4.5,15c0,0-16.2-3.8-31.6-1s-22,10.7-25,19.1c0,0-1.5,6.5-3.1,6.5s-1-7.1,0.7-11.5
		s5.6-13.6,19.6-21.6S61.2,33.3,69,33.7z"/>
	<path id="XMLID_5_" class="st0" d="M67.8,73.9c0,0-4.6,6.5-2.8,10.2c1.7,3.6,3.5,5.8,6.2,8s2.4,4.7,1.3,10.2c0,0-16.3-12-24.9-16.5
		s-18.9-8-26.9-6s-8.4,6.5-7.6,10.8c0.8,4.3,1.8,6.3,0.9,6.8c-0.8,0.4-5.3-4.6-5.8-11.1c-0.4-6.5,0.3-11.8,7.3-16.7
		C22.5,64.6,47.4,64,67.8,73.9z"/>
	<path id="XMLID_6_" class="st0" d="M104,60.8c0,0-2.8,0.3-5.1-2.6c-2.2-3-5.2-7.7-7.5-10.1c-2.3-2.3-6.6-3.5-8.9-0.5
		s-7.1,12.2-10.1,12.1c-3-0.1-4.1-3.7-3.2-8s2.7-10.7,4.7-16s3.3-8.2,0.3-13.6s-8.7-9.2-11.1-14.5S63,0.8,65.5,1.9s9.2,8,13.5,10.5
		s9.9,2.8,17.9,3.7s9.5,1.1,9.4,4c-0.1,3-4.9,5.1-7.7,8.2S97,37.5,99,41.8S105.3,53,104,60.8z"/>
	<path id="XMLID_4_" class="st0" d="M89.5,0c0,0,3,0,3.4,4.7s-0.3,7.4-3.4,8c-3.1,0.6-6.2-0.1-6.3-5S84.4,0.1,89.5,0z"/>
	<path id="XMLID_8_" class="st0" d="M69.7,80.4c0,0,3.2-0.2,5.6,0.1c2.3,0.3,5.6,0.7,7.9-0.6c2.3-1.3,4.8-3.9,5.7-4.2
		s1.2-0.2,1.2,0.9s0.1,2.9-0.8,4.9c-1,2-2.1,3.9-1.4,7.2c0.7,3.3,2.3,9,3.4,11.6c1.1,2.5,1.3,6.5,0.9,8.1l-7.2-6.5
		c0,0-3.8,5.4-4.2,7.8c-0.4,2.4-1.4,4.9-2.6,5.8c0,0,0.2-9.7,0.1-10.7c0-1,0.1-6,0-9.2s-0.7-6.6-3.2-7.9S69.7,84.8,69.7,80.4z"/>
	<path id="XMLID_9_" class="st0" d="M79.4,67.1c0,0,3.5-0.3,4.1,2.5s0.4,5.4-1.2,6.8c-1.6,1.3-4.3,1-5.7-0.7
		c-1.4-1.7-1.2-4.3-0.9-5.7C76,68.7,77.6,67.3,79.4,67.1z"/>
	<path id="XMLID_7_" class="st0" d="M136.4,54.4c0,0,1,3.8-1.3,5.8c-2.4,2-9.3,4.3-11,10.3c-1.8,6-1.8,14.9-3.3,20.3
		s-3.2,6.8-3.2,6.8s-1.2,0-1.9-2.4s-4.4-9.4-4.9-10.8s-0.9-2.6-0.9-2.6s-2.7,0.8-7.4,4.9c-4.8,4.1-6.6,4-6.6,4s-0.9-3.6,1.5-7.6
		s8.2-11.4,10.1-13.8c1.9-2.3,5.6-8.3,4.2-12.6s-5.1-12-3-16.4c0,0,6.1,2.9,6.9,3.8s2.4,4.3,6.9,7.6s7,3.2,8.9,2.8
		C133.2,54.3,136.4,54.4,136.4,54.4z"/>
	<path id="XMLID_10_" class="st0" d="M126.3,35.3c0,0,2.7,0.5,2.6,5.6c-0.1,5.1-1.6,8.7-3.9,8.9s-3.5-1.6-3.4-6.6
		C121.6,38,123.1,34.3,126.3,35.3z"/>
	<path id="XMLID_12_" class="st0" d="M147.1,106.8l-5.3,1.1c0,0-4-2.6-4.1-8.3c-0.1-5.7,2.1-9.8,5.1-11.8s6.9-1.1,8,0.9l-0.4-11
		c0,0,0.2-2.1-1.7-2.3l-0.4-1.1c0,0,2-0.5,3.6-0.4s3.5,0.2,3.5,0.2l0.1,22.3v7.7c0,0-0.3,3,2.4,3.3l-0.2,1.1c0,0-4.9,0.1-7.1,0.5
		l-0.2-3.1l-2.2,0.4c0,0,2.4-2.3,2.3-8.2c-0.1-5.9-1.2-8.7-2.7-9.4s-3.6,0.5-4.4,4.3c-0.8,3.7-0.2,8,0.3,10.1
		S145.6,106.3,147.1,106.8z"/>
	<path id="XMLID_13_" class="st0" d="M159.4,87.5c0,0,1.1-0.5,3.5-0.7c2.4-0.1,4,0,4,0l0.3,4.2c0,0,2.5-4,5.3-4s3.2,1.4,3.3,3.3
		s0.2,3.7-2.1,3.7s-3.4-3.7-3.4-3.7l-2.2,16.6l2.6,1.6c0,0-2.6,0.4-4.6,0.5s-3.9,0.2-4.8,0.3c-0.9,0.1-1.6-0.1-1.6-0.1
		s2.5-1.5,2.6-3.1s0.2-15.3,0.2-15.3s0.3-2-2.3-2.2C160.2,88.5,159.7,88.5,159.4,87.5z"/>
	<path id="XMLID_18_" class="st0" d="M193.5,91.2c-1.4-3.3-4.7-4.4-7.4-4.4s-5.6,1.9-7.4,4.9c-1.8,3-2,7.2-1.2,10.2s2,5.6,5.2,6.8
		c3.2,1.2,6.8,0.4,9.1-1.2s2-3.7,2-3.7c-0.4-0.3-1.3-0.1-1.7,0.7c-0.4,0.8-1.4,1.7-3.5,2.1s-2.9-0.7-2.9-0.7l-2.9-8.7l11.5-0.2
		C194.3,97,194.9,94.5,193.5,91.2z M187.2,95.4c-2,0.3-4.5,0-4.5,0s0.2-3.7,1.2-5.3s1.8-1.8,2.6-1.6s2.4,1.2,3,3.6
		C190.2,94.5,189.2,95.2,187.2,95.4z"/>
	<path id="XMLID_21_" class="st0" d="M212.6,106.5c-0.8-0.4-0.8-2.9-0.8-2.9s0.7-10.4-0.2-13.1s-3.2-3.7-5.8-3.8
		c-2.6-0.1-5.9,0.9-6.8,2c-0.9,1.1-1.1,2.5-0.7,3.8c0.4,1.3,1.3,0.6,1.3,0.6l4-4.3c2.2,0.5,3.3,1.9,3,4.6s-5,3.7-7.2,5.2
		c-2.2,1.4-2.4,4.1-2,6.8c0.4,2.8,3.4,3.8,3.4,3.8l5.9-2.5c0,0,0.3,1.1,0.8,1.9s2.5,0.8,4.4,0.5c1.9-0.2,2.9-2.2,2.9-2.2
		S213.4,107,212.6,106.5z M206.9,101.6c0,0,0,3.9-2.6,4.3s-2.7-2.4-2.4-3.8s0.9-3.4,5-5.4V101.6z"/>
	<path id="XMLID_11_" class="st0" d="M225.9,109.1h-8.8c0,0-1.1,0.1-0.7-0.7s2.2-3.4,2.4-4.1c0.1-0.8,0.1-9.6,0.1-11.4
		s-0.2-3.6-1.6-4.1c-1.4-0.5-1.7-0.4-1.6-1.4c0,0,2.2,0,4.2-0.2c2.1-0.2,3.5-0.4,3.5-0.4l0.5,3.4c0,0,3.4-2.2,4.1-2.8
		c0.7-0.6,2.2-0.9,3.8-0.3s2.5,2.4,2.5,2.4s4.7-1.9,6.2-2.8c0,0,2.8-0.1,4.4,2c1.6,2.1,1.7,6.5,1.5,8.8s0,8.6,0.2,9.6
		c0,0,0.4,0.4,1.1,0.7s0.7,0.2,0.7,0.6c0,0.3,0,0.9,0,0.9s-4.8-0.2-6-0.2s-3.2,0.1-3.2,0.1s-0.4-0.7,0-1.1s1.3-0.3,1.6-0.7
		c0.3-0.4,0.6-4.6,0.7-6.5c0-1.9,0.3-6.4-0.2-8.8s-1.3-3-2.7-3.1s-3.2,1.9-3.6,4.9s-0.4,10-0.2,11.4s0,1.9,1.2,2.3s1.4,0.7,1.1,1.7
		c0,0-7.3-0.2-9.6,0.1c0,0-0.3-1,0.8-1.4s1.6-1.8,1.8-3.3s0-6.9-0.5-9.5c-0.6-2.6-1-5.1-1-5.1s-0.1-1-1.2-0.9s-2.6,0.5-3.4,4.7
		c-0.8,4.1-0.9,8.6-0.3,10.3C224.6,105.8,226.8,107.7,225.9,109.1z"/>
	<path id="XMLID_25_" class="st0" d="M25.1,130c-3-5.4-8.5-6.1-11.9-6.4S4,124,2.9,124.3c-1.1,0.2-2.4,0.6-2.6,1
		c-0.3,0.4-0.4,1.2,0.5,1.2s3.3,0.4,3.3,0.4s-0.2,26.5-0.2,28c0,1.6-0.3,2.4-0.3,2.4c2.6-0.4,4.2,0.3,8,0.3c3.9,0,10.2-1.6,13.2-8.4
		C27.6,142.6,28,135.4,25.1,130z M23.2,140.7c-0.3,5.3-1.2,8-4.5,12.3c-3.2,4.2-11.5,2.2-11.5,2.2L8,125.6l12.3,3.4
		C20.4,129,23.5,135.4,23.2,140.7z"/>
	<path id="XMLID_15_" class="st0" d="M33.2,126.8l-3.6-0.6c0,0-0.6-0.2-0.4-0.9c0.3-0.8,3.4-0.9,3.4-0.9l14-0.6c0,0,2.4-0.4,2.4,1.2
		s-0.1,5.8-0.2,6.3c-0.2,0.4-1.2,1.2-1.7,0.7c-0.5-0.6-2.5-5.8-2.5-5.8l-7.5-0.1l-0.2,13.3l9.6-0.1c0,0-2.7,2.6-4.1,2.6
		c-1.4,0-4.5-0.7-5.7-0.4L36.1,155l9.9-0.3c0,0,1.8,0.2,2.5-2s0.4-3.1,1.1-3.1c0.6,0,1.2,2.6,0.4,4.7s-1.2,3.5-3.4,3.3
		s-10.3-1-14,0.1L33.2,126.8z"/>
	<path id="XMLID_14_" class="st0" d="M68.3,131l-0.1-5.5c0,0-0.4-2.5-5.9-2.4s-9.5,4.1-9.6,9.5c-0.1,5.4,3.9,7.7,6.2,8.9
		c2.3,1.3,6.7,4.4,6.8,7.7s-2.2,6.1-6.6,6.5s-5.4-4.4-5.4-5.6s-0.8-2.2-1.3-1.1c-0.5,1-0.6,4.9-0.4,6.2c0.2,1.3,3,3.6,8.1,2.5
		s8.4-3.7,8.5-8.2c0.1-4.6-0.8-7.7-5.6-10.1s-7.6-5.1-7.6-7.6s1.5-6.5,5.7-6.5s4.9,2,5.3,3.6C66.8,130.5,66.7,131.9,68.3,131z"/>
	<path id="XMLID_26_" class="st0" d="M70.3,127.2c0,0-0.1-3.2,4.1-3.2s11.8,0.1,16.3,0.3s4.1-0.1,5.7-0.3s3.6,0.1,3.8,1.8
		c0.2,1.7-0.7,24.4-0.7,24.4l-0.1,6.8l-3.5,0.5l0.6-25.1c0,0,0.5-5.4-0.3-5.7c-0.8-0.3-3.1,0.2-5.2,0.1s-6.6-0.2-7.5,0.3l-0.9,29.8
		l-3.5,0.7l0.7-31.3l-5.4,0.6c0,0-2.4,0.2-2.5,2.4c-0.1,2.1-0.3,3-1.1,3S70.2,129.5,70.3,127.2z"/>
	<path id="XMLID_27_" class="st0" d="M156.1,127.2c0,0-0.1-3.2,4.1-3.2s11.8,0.1,16.3,0.3c4.6,0.2,4.1-0.1,5.7-0.3
		c1.6-0.1,3.6,0.1,3.8,1.8c0.2,1.7-0.7,24.4-0.7,24.4l-0.1,6.8l-3.5,0.5l0.6-25.1c0,0,0.5-5.4-0.3-5.7c-0.8-0.3-3.1,0.2-5.2,0.1
		s-6.6-0.2-7.5,0.3l-0.9,29.8l-3.5,0.7l0.7-31.3l-5.4,0.6c0,0-2.4,0.2-2.5,2.4c-0.1,2.1-0.3,3-1.1,3
		C155.7,132.1,156,129.5,156.1,127.2z"/>
	<path id="XMLID_28_" class="st0" d="M104.9,157.4c0,0,2.5-9.6,2.9-17.8s0.9-11.9-0.2-13.2c0,0-2.1-0.3-2.8-0.3
		c-0.6,0-0.9-0.1-0.9-0.7s0-0.9,0.7-0.9s2.9-0.3,3.9-0.5s2.6-0.8,3.7,1.3c1,2.1,7.5,13.8,8.4,15.7c0.9,2,5.3,8.8,5.3,8.8
		s0.2-17.4,0.3-20.1c0.1-2.7,0.5-4.2,1.4-5.3c0,0,0.7-0.7,1.2-0.7s1.3,0,1.3,0s0.9,0.1,0.5,1c-0.3,0.9-1.6,5.9-2.2,11.5
		c-0.6,5.7-0.5,18.3-0.5,18.3s0.1,2.2-0.5,2.2s-2.6-1.1-5.4-6.4c-2.8-5.2-7.6-13.5-8.9-15.8s-2.8-4.9-2.8-4.9s-0.3,13.3-0.4,17.1
		s0.1,8.9-0.9,9.6C107.9,157.2,104.9,157.4,104.9,157.4z"/>
	<path id="XMLID_29_" class="st0" d="M219,157.4c0,0,2.5-9.6,2.9-17.8s0.9-11.9-0.2-13.2c0,0-2.1-0.3-2.8-0.3
		c-0.6,0-0.9-0.1-0.9-0.7s0-0.9,0.7-0.9c0.6,0,2.9-0.3,3.9-0.5c0.9-0.2,2.6-0.8,3.7,1.3c1,2.1,7.5,13.8,8.4,15.7s5.3,8.8,5.3,8.8
		s0.2-17.4,0.3-20.1c0.1-2.7,0.5-4.2,1.4-5.3c0,0,0.7-0.7,1.2-0.7c0.4,0,1.3,0,1.3,0s0.9,0.1,0.5,1c-0.3,0.9-1.6,5.9-2.2,11.5
		c-0.6,5.7-0.5,18.3-0.5,18.3s0.1,2.2-0.5,2.2s-2.6-1.1-5.4-6.4c-2.8-5.2-7.6-13.5-8.9-15.8s-2.8-4.9-2.8-4.9s-0.3,13.3-0.4,17.1
		c-0.1,3.8,0.1,8.9-0.9,9.6C222,157.2,219,157.4,219,157.4z"/>
	<path id="XMLID_33_" class="st0" d="M157,155c-1.3-0.1-2.2-0.9-3.1-3.4c-0.9-2.4-3.5-14.7-3.5-14.7s-2.2-10.8-2-11.8
		s-0.5-1.3-0.5-1.3s-1.1-0.2-2.1,0.1c-1,0.2-2,3.5-2.6,4.7c-0.6,1.1-5.2,12.2-6,13.9s-6,15.3-6,15.3s2.8,0.1,3.7-1.5
		c1-1.6,4.3-12.1,4.3-12.1l9.2-0.2c0,0,1.4,6.3,2.1,8.4s1.4,5.3,4.8,5.2c3.4-0.1,4.3-2.6,4.3-2.6S158.3,155.1,157,155z M139.6,142.1
		l5.6-14.5c0,0,1,3.1,1.4,6.1c0.3,3,1.3,8.4,1.3,8.4H139.6z"/>
	<path id="XMLID_37_" class="st0" d="M215.7,133.3c-2.7-10.1-10.4-10.2-10.4-10.2c-11.7,0.5-13.4,10.6-14.1,17.1
		c-0.7,6.5,1.8,13.6,5.5,16s9.2,2.8,13-0.3C213.4,152.8,218.4,143.4,215.7,133.3z M208.9,153.1c-3.7,4.7-9.1,1.8-11.1-1.1
		c-2-2.9-3.4-9.6-2.5-15.6s3.2-10.8,8-11.3c0,0,6.8-0.3,8.4,8.4C213.3,142.1,212.5,148.4,208.9,153.1z"/>
	<path id="XMLID_40_" class="st0" d="M118.3,174c-1.8-0.7-4.4-0.9-6.8-0.9s-5.9,0.3-5.9,0.3s1.2,0.7,2,1.1c0.8,0.4,0.6,1.7,0.6,1.7
		s0.2,10.3,0.1,12.7c-0.1,2.3-2.2,3.6-2.2,3.6s0.8,0.3,3.3,0.2c2.4-0.1,3.8-0.5,3.8-0.5s0-0.2-1-0.6c-1-0.4-1-1-1.3-2
		s0.2-6.3,0.2-6.3c4.5,0,7.2-0.6,8.1-1.3s2.1-1.8,2.2-3.7C121.4,176.4,120.1,174.7,118.3,174z M118,180c-0.9,2.6-3.9,2.5-3.9,2.5
		l-3.1,0.1l-0.2-7.3c0-0.3,0.1-0.9,0.8-1.1c0.7-0.2,3.5-0.5,5.1,0.6C118.4,175.9,118.9,177.3,118,180z"/>
	<path id="XMLID_30_" class="st0" d="M148.2,176.7c0,0,0.1-1.5-0.5-1.8s-2-1.4-2-1.4s3-0.4,5.7-0.4c2.7-0.1,5.6,0.1,6.7,0.2
		c1.1,0.1,2.3,0.2,2.3,0.2l0.9,4.2c0,0-3.3-3.1-4.1-3.4c-0.9-0.3-4.6-0.3-5.6,0c-1.1,0.2-0.6,0.7-0.6,1.5s-0.2,6.6-0.2,6.6l3.8-0.5
		c0,0,0.7-0.1,1-1.1c0.4-1,0.9-1.5,0.9-1.5l0.1,7.3l-5.8-3.4l3.4,8.8c0,0,4.3,0.6,5.6-1.1c1.3-1.6,2.6-2.8,2.6-2.8l-1,4.7h-16.3
		c0,0,2.3-1.9,2.8-3c0.4-1.1,0.3-4.2,0.3-4.2L148.2,176.7L148.2,176.7z"/>
	<path id="XMLID_44_" class="st0" d="M204.1,191.7c-0.6-0.2-1.3-0.4-1.8-1.2c-0.5-0.7-0.5-2.1-1.3-3.2c-0.8-1.1-3.3-4.4-3.3-4.4
		s0.8-0.3,3.1-1.7s1.5-4.7,0.7-5.8s-3-1.9-5.4-2.1c-2.4-0.1-6.2-0.3-7.3-0.2s-2.1,0.1-2.1,0.4c0,0.3,0.3,0.3,1.5,0.7
		c1.1,0.5,0.9,1.8,0.9,1.8v2.2c0,0,0.2,10.3,0.1,11.8c-0.1,1.4-2.6,2.3-2.6,2.3l6.5-0.7c-1.1-0.3-1.2-2.4-1.2-2.4v-6.1
		c0,0,0.5,0.4,2.4,2.6c1.9,2.2,4.6,6.9,5.3,6.7c0.8-0.2,5.5,0,5.5,0S204.7,191.9,204.1,191.7z M192.1,181.6c0,0-0.3-5.4-0.2-6.2
		c0-0.8,0.5-1.3,1.1-1.5c0.7-0.2,2.9-0.5,4.3,0.6c1.4,1,2.1,1.9,2,3.4s-0.4,3.4-3.6,4.2C192.6,183,192.2,182.4,192.1,181.6z"/>
	<path id="XMLID_22_" class="st0" d="M228.3,173.6c0,0,2.4-0.2,5-0.4c2.6-0.1,3.3,0.1,3.3,0.1s-2.5,4-2.8,5s0,8.9,0.7,11
		s3.3,2.5,5.9,2.5s3.9-1.3,4.4-4.5c0.5-3.1,0.5-10.2,0.5-10.2s0-2.5-3-3.6l6.5-0.2l-2.7,4.9c0,0,0.3,7.2-0.4,10.5s-3,4.1-6.9,4.4
		c-3.9,0.3-7.8-1.9-7.7-5.7c0-3.8,0.1-9.3,0.1-9.3S231.5,174.4,228.3,173.6z"/>
</g>
</svg>
