<?xml version="1.0" encoding="utf-8"?>
<!-- Generator: Adobe Illustrator 22.0.0, SVG Export Plug-In . SVG Version: 6.00 Build 0)  -->
<svg version="1.1" id="Capa_1" xmlns="http://www.w3.org/2000/svg" xmlns:xlink="http://www.w3.org/1999/xlink" x="0px" y="0px"
	 viewBox="0 0 416 329.2" style="enable-background:new 0 0 416 329.2;" xml:space="preserve">
<style type="text/css">
	.st0{fill:#FFFFFF;}
</style>
<g>
	<g>
		<path class="st0" d="M39.3,297.1c0,4.3-1.4,7.6-4.2,9.9c-2.8,2.3-6.8,3.4-12,3.4h-4.3v15.4H12v-41.2h11.9c5.1,0,9,1.1,11.6,3.2
			C38,289.9,39.3,293,39.3,297.1z M18.8,304.7h3.6c3.5,0,6-0.6,7.6-1.8c1.6-1.2,2.4-3.1,2.4-5.6c0-2.4-0.7-4.1-2.2-5.3
			c-1.4-1.2-3.7-1.7-6.8-1.7h-4.7V304.7z"/>
		<path class="st0" d="M55.8,326.4c-4.8,0-8.6-1.4-11.4-4.2c-2.7-2.8-4.1-6.7-4.1-11.7c0-5.1,1.3-9.1,3.8-12c2.5-2.9,6-4.4,10.4-4.4
			c4.1,0,7.4,1.2,9.7,3.7c2.4,2.5,3.6,5.9,3.6,10.3v3.6H47.1c0.1,3,0.9,5.3,2.4,7c1.5,1.6,3.7,2.4,6.5,2.4c1.8,0,3.6-0.2,5.1-0.5
			c1.6-0.3,3.3-0.9,5.1-1.7v5.4c-1.6,0.8-3.2,1.3-4.9,1.6C59.8,326.2,57.9,326.4,55.8,326.4z M54.6,299.1c-2.1,0-3.8,0.7-5.1,2
			c-1.3,1.3-2,3.3-2.3,5.8h14.1c0-2.6-0.7-4.5-1.9-5.8C58.3,299.8,56.7,299.1,54.6,299.1z"/>
		<path class="st0" d="M86.6,294.1c1.3,0,2.4,0.1,3.3,0.3l-0.6,6.2c-0.9-0.2-1.9-0.3-2.9-0.3c-2.6,0-4.8,0.9-6.4,2.6
			c-1.6,1.7-2.5,4-2.5,6.7v16.3h-6.6v-31.1H76l0.9,5.5h0.3c1-1.9,2.4-3.3,4-4.4C82.9,294.6,84.7,294.1,86.6,294.1z"/>
		<path class="st0" d="M113,325.8l-0.9-4.1h-0.3c-0.9,1.4-2.2,2.6-3.9,3.4c-1.7,0.8-3.6,1.2-5.8,1.2c-3.8,0-6.6-0.9-8.4-2.8
			c-1.9-1.9-2.8-4.7-2.8-8.5v-20.4h6.7v19.2c0,2.4,0.5,4.2,1.5,5.4c1,1.2,2.5,1.8,4.6,1.8c2.8,0,4.8-0.8,6.1-2.5
			c1.3-1.7,2-4.4,2-8.3v-15.5h6.6v31.1H113z M100.4,290.9v-0.7c1.1-1.3,2.2-2.8,3.3-4.4c1.1-1.6,2-3,2.7-4.1h7.7v0.6
			c-1,1.1-2.4,2.6-4.4,4.4c-1.9,1.8-3.6,3.2-4.9,4.2H100.4z"/>
		<path class="st0" d="M148.3,325.8h-6.7v-35.4h-12.1v-5.8h30.9v5.8h-12.1V325.8z"/>
		<path class="st0" d="M177.2,294.1c1.3,0,2.4,0.1,3.3,0.3l-0.6,6.2c-0.9-0.2-1.9-0.3-2.9-0.3c-2.6,0-4.8,0.9-6.4,2.6
			c-1.6,1.7-2.5,4-2.5,6.7v16.3h-6.6v-31.1h5.2l0.9,5.5h0.3c1-1.9,2.4-3.3,4-4.4C173.5,294.6,175.3,294.1,177.2,294.1z"/>
		<path class="st0" d="M201.1,325.8l-1.3-4.3h-0.2c-1.5,1.9-3,3.2-4.5,3.9c-1.5,0.7-3.5,1-5.9,1c-3.1,0-5.4-0.8-7.2-2.5
			c-1.7-1.7-2.6-4-2.6-7c0-3.2,1.2-5.6,3.6-7.3c2.4-1.6,6-2.5,10.9-2.7l5.4-0.2v-1.7c0-2-0.5-3.5-1.4-4.5c-0.9-1-2.4-1.5-4.3-1.5
			c-1.6,0-3.1,0.2-4.6,0.7c-1.5,0.5-2.9,1-4.2,1.7l-2.1-4.7c1.7-0.9,3.5-1.6,5.5-2c2-0.5,3.9-0.7,5.7-0.7c4,0,6.9,0.9,9,2.6
			c2,1.7,3,4.4,3,8.1v21H201.1z M191.3,321.3c2.4,0,4.3-0.7,5.8-2c1.5-1.3,2.2-3.2,2.2-5.6v-2.7l-4,0.2c-3.1,0.1-5.4,0.6-6.8,1.6
			c-1.4,0.9-2.1,2.4-2.1,4.3c0,1.4,0.4,2.5,1.2,3.2C188.4,320.9,189.6,321.3,191.3,321.3z"/>
		<path class="st0" d="M217.6,325.8l-11.8-31.1h7l6.3,18.1c1.1,3,1.7,5.5,2,7.4h0.2c0.2-1.4,0.8-3.8,2-7.4l6.3-18.1h7l-11.9,31.1
			H217.6z"/>
		<path class="st0" d="M250.3,326.4c-4.8,0-8.6-1.4-11.4-4.2c-2.7-2.8-4.1-6.7-4.1-11.7c0-5.1,1.3-9.1,3.8-12
			c2.5-2.9,6-4.4,10.4-4.4c4.1,0,7.4,1.2,9.7,3.7c2.4,2.5,3.6,5.9,3.6,10.3v3.6h-20.7c0.1,3,0.9,5.3,2.4,7s3.7,2.4,6.5,2.4
			c1.8,0,3.6-0.2,5.1-0.5c1.6-0.3,3.3-0.9,5.1-1.7v5.4c-1.6,0.8-3.2,1.3-4.9,1.6C254.3,326.2,252.4,326.4,250.3,326.4z M249.1,299.1
			c-2.1,0-3.8,0.7-5.1,2c-1.3,1.3-2,3.3-2.3,5.8h14.1c0-2.6-0.7-4.5-1.9-5.8C252.8,299.8,251.2,299.1,249.1,299.1z"/>
		<path class="st0" d="M271.9,325.8h-6.6V282h6.6V325.8z"/>
		<path class="st0" d="M311.6,314.6c0,3.7-1.3,6.5-4,8.6s-6.3,3.1-11,3.1s-8.5-0.7-11.4-2.2v-6.4c1.9,0.9,3.9,1.6,6,2.1
			s4.1,0.8,5.9,0.8c2.7,0,4.6-0.5,5.9-1.5c1.3-1,1.9-2.4,1.9-4.1c0-1.5-0.6-2.8-1.7-3.9c-1.2-1.1-3.6-2.3-7.2-3.8
			c-3.8-1.5-6.4-3.3-7.9-5.2c-1.5-2-2.3-4.3-2.3-7c0-3.4,1.2-6.1,3.7-8.1c2.4-2,5.7-3,9.8-3c3.9,0,7.9,0.9,11.8,2.6l-2.1,5.5
			c-3.7-1.5-6.9-2.3-9.8-2.3c-2.2,0-3.8,0.5-5,1.4s-1.7,2.2-1.7,3.8c0,1.1,0.2,2,0.7,2.7c0.5,0.8,1.2,1.5,2.2,2.2
			c1,0.7,2.9,1.6,5.6,2.7c3,1.3,5.2,2.4,6.6,3.5c1.4,1.1,2.4,2.3,3.1,3.7C311.2,311.1,311.6,312.8,311.6,314.6z"/>
		<path class="st0" d="M313.2,322.3c0-1.4,0.4-2.4,1.1-3.2c0.7-0.7,1.7-1.1,3.1-1.1c1.4,0,2.4,0.4,3.1,1.1s1.1,1.8,1.1,3.1
			c0,1.3-0.4,2.4-1.1,3.2c-0.7,0.8-1.8,1.2-3.1,1.2c-1.4,0-2.4-0.4-3.1-1.2C313.6,324.7,313.2,323.6,313.2,322.3z"/>
		<path class="st0" d="M351.7,325.8l-4.1-11.4h-15.7l-4,11.4h-7.1l15.4-41.3h7.3l15.4,41.3H351.7z M345.8,308.6l-3.9-11.2
			c-0.3-0.8-0.7-1.9-1.2-3.5c-0.5-1.6-0.8-2.8-1-3.5c-0.5,2.3-1.2,4.8-2.2,7.6l-3.7,10.7H345.8z"/>
		<path class="st0" d="M358,322.3c0-1.4,0.4-2.4,1.1-3.2c0.7-0.7,1.7-1.1,3.1-1.1c1.4,0,2.4,0.4,3.1,1.1s1.1,1.8,1.1,3.1
			c0,1.3-0.4,2.4-1.1,3.2c-0.7,0.8-1.8,1.2-3.1,1.2c-1.4,0-2.4-0.4-3.1-1.2C358.3,324.7,358,323.6,358,322.3z"/>
		<path class="st0" d="M388.4,289.8c-3.9,0-6.9,1.4-9.1,4.1c-2.2,2.7-3.3,6.5-3.3,11.3c0,5,1.1,8.9,3.2,11.5
			c2.1,2.6,5.2,3.9,9.2,3.9c1.7,0,3.4-0.2,5.1-0.5c1.6-0.3,3.3-0.8,5.1-1.3v5.8c-3.2,1.2-6.9,1.8-11,1.8c-6,0-10.6-1.8-13.9-5.5
			c-3.2-3.6-4.8-8.9-4.8-15.7c0-4.3,0.8-8,2.4-11.2c1.6-3.2,3.8-5.7,6.8-7.4c3-1.7,6.4-2.6,10.4-2.6c4.2,0,8.1,0.9,11.7,2.6
			l-2.4,5.6c-1.4-0.7-2.9-1.2-4.4-1.7S390.1,289.8,388.4,289.8z"/>
		<path class="st0" d="M401.1,322.3c0-1.4,0.4-2.4,1.1-3.2c0.7-0.7,1.7-1.1,3.1-1.1c1.4,0,2.4,0.4,3.1,1.1s1.1,1.8,1.1,3.1
			c0,1.3-0.4,2.4-1.1,3.2c-0.7,0.8-1.8,1.2-3.1,1.2c-1.4,0-2.4-0.4-3.1-1.2C401.5,324.7,401.1,323.6,401.1,322.3z"/>
	</g>
	<g>
		<path class="st0" d="M217.7,161.2c3.1-1.7,5.4-3.8,7-6.2c1.6-2.4,2.4-4.9,2.4-7.4c0-2.6-0.8-4.5-2.3-5.7c-1.5-1.2-3.5-1.7-5.8-1.7
			c-2.3,0-4.2,0.7-5.9,2c-1.7,1.3-2.5,3.5-2.5,6.5C210.6,152.7,212.9,156.8,217.7,161.2z"/>
		<path class="st0" d="M227.9,77.3c8.3,0,12.4-5.7,12.4-17c0-11.2-4.2-16.8-12.5-16.8c-4.4,0-7.5,1.4-9.5,4.3c-2,2.9-2.9,7-2.9,12.4
			C215.3,71.6,219.5,77.3,227.9,77.3z"/>
		<path class="st0" d="M203.3,204c0,3.4,1.2,6.2,3.6,8.3c2.4,2.2,5.6,3.2,9.6,3.2c3.1,0,5.8-0.4,8.1-1.2c2.3-0.8,4.1-1.7,5.3-2.7
			l-20-20.3C205.5,194.6,203.3,198.8,203.3,204z"/>
		<path class="st0" d="M182.6,77.3c3.6,0,6.4-1.5,8.3-4.4c1.9-3,2.9-7.2,2.9-12.6c0-5.5-1-9.6-2.9-12.5c-1.9-2.8-4.8-4.2-8.5-4.2
			c-4.1,0-7.1,1.2-9.1,3.6c-1.9,2.4-2.9,6.3-2.9,11.6v1.5c0,6,0.9,10.3,2.8,13C175.2,76,178.3,77.3,182.6,77.3z"/>
		<path class="st0" d="M393.8,1H0v247.6c0,12.3,10,22.2,22.2,22.2h393.8V23.2C416.1,11,406.1,1,393.8,1z M210.7,41.7
			c4.1-4.5,9.8-6.7,17.2-6.7c7.1,0,12.7,2.3,16.8,6.8c4.1,4.6,6.2,10.7,6.2,18.4c0,8-2.1,14.2-6.2,18.7c-4.1,4.5-9.8,6.7-17.1,6.7
			c-4.6,0-8.6-1-12.1-3.1c-3.5-2.1-6.2-5-8.1-8.9s-2.8-8.4-2.8-13.5C204.6,52.4,206.7,46.2,210.7,41.7z M81.6,35.9h8.1l1.4,8.6h0.5
			c1.6-2.9,3.7-5.2,6.4-7c2.6-1.7,5.4-2.6,8.4-2.6c2.1,0,3.8,0.1,5.2,0.4l0,0.4h10.1v30.2c0,3.7,0.8,6.6,2.3,8.4
			c1.5,1.9,3.9,2.8,7.2,2.8c4.4,0,7.6-1.3,9.6-3.9c2.1-2.6,3.1-7,3.1-13.1V35.9h10.4v49h-8.2l-1.5-6.4h-0.5
			c-1.4,2.3-3.5,4.1-6.2,5.4c-2.7,1.3-5.7,1.9-9.1,1.9c-5.9,0-10.4-1.5-13.3-4.4c-2.9-3-4.4-7.4-4.4-13.4V39.6l-0.6,5.6
			c-1.5-0.4-3-0.5-4.6-0.5c-4.2,0-7.5,1.4-10.1,4.1C93.3,51.5,92,55,92,59.3v25.6H81.6V35.9z M30.7,77.1c-5.3-5.8-8-14-8-24.5
			c0-10.4,3-18.6,9-24.5c6-5.9,14.2-8.8,24.7-8.8c6.8,0,13.2,1.3,19.2,3.9L72,32c-5.3-2.4-10.5-3.6-15.8-3.6
			c-6.9,0-12.4,2.2-16.4,6.5c-4,4.3-6,10.3-6,17.8c0,7.9,1.8,13.9,5.4,18c3.6,4.1,8.8,6.2,15.6,6.2c3.4,0,7.1-0.4,11-1.3V58.9H52.4
			v-9.1h23.8v32.5c-3.9,1.3-7.6,2.2-11.2,2.7c-3.6,0.5-7.5,0.8-11.6,0.8C43.6,85.8,36,82.9,30.7,77.1z M168.8,239.1h-29.3v-51.8
			c0-2.7,0-5.7,0.1-9c0.1-3.3,0.4-11.3,1.1-24.1H140l-23.8,84.9H85.8l-24.1-85h-0.7c1.1,14.5,1.7,25.7,1.7,33.8v51.3H34.4V121h42.5
			l24.6,83.8h0.6l24.1-83.8h42.6V239.1z M170.5,86.6v20.1h-10.4V35.9h8.4c0.2,0.9,0.7,3.1,1.5,6.6h0.5c3.2-5,8.1-7.4,14.6-7.4
			c6.1,0,10.9,2.2,14.3,6.6c3.4,4.4,5.1,10.6,5.1,18.6c0,8-1.7,14.2-5.2,18.7c-3.5,4.5-8.3,6.7-14.4,6.7c-6.2,0-11-2.2-14.4-6.7
			h-0.6C170.3,83.2,170.5,85.7,170.5,86.6z M358.3,239.1l-25-43h-8.1v43H298h-4.7h-36.2l-8-8.2c-4.8,3.1-8.8,5.2-11.9,6.3
			c-3.1,1.2-6.6,2-10.4,2.6c-3.9,0.6-8.3,0.9-13.2,0.9c-8.5,0-16-1.5-22.6-4.4s-11.5-7-15-12.2c-3.5-5.2-5.2-11.2-5.2-17.8
			c0-14.1,7.3-24.9,22-32.4c-3.3-3.8-5.9-7.8-7.8-12c-1.9-4.2-2.8-9-2.8-14.3c0-8.6,3.3-15.5,10-20.5c6.6-5.1,15.8-7.6,27.4-7.6
			c11.4,0,20.2,2.5,26.5,7.6c6.3,5,9.5,11.9,9.5,20.6c0,6-1.7,11.5-5.1,16.6c-3.4,5.1-8.8,9.9-16.2,14.3l16.1,15.3
			c4-6.2,6.8-13.2,8.4-21h32.8c-1.6,7.4-4.2,14.9-7.6,22.3c-3.5,7.5-7.4,13.8-11.8,19.2l21.2,20.3V121H332
			c32.1,0,48.1,11.6,48.1,34.9c0,13.7-6.7,24.3-20,31.7l34.4,51.4H358.3z"/>
		<path class="st0" d="M331.5,145.2h-6.3v27h6c11.1,0,16.7-4.9,16.7-14.8C347.9,149.2,342.4,145.2,331.5,145.2z"/>
	</g>
</g>
</svg>
