<?xml version="1.0" encoding="utf-8"?>
<!-- Generator: Adobe Illustrator 23.0.0, SVG Export Plug-In . SVG Version: 6.00 Build 0)  -->
<svg version="1.1" id="Capa_1" xmlns="http://www.w3.org/2000/svg" xmlns:xlink="http://www.w3.org/1999/xlink" x="0px" y="0px"
	 viewBox="0 0 340 300" style="enable-background:new 0 0 340 300;" xml:space="preserve">
<style type="text/css">
	.st0{fill:#F6D436;}
	.st1{fill:#462B17;}
	.st2{fill:#FFFDFB;}
	.st3{fill:#B0E2F1;}
	.st4{fill:#FDFAF3;}
	.st5{fill:#794833;}
	.st6{fill:#FB796B;}
	.st7{fill:#A0D29D;}
</style>
<g>
	<g>
		<g>
			<circle class="st5" cx="111.6" cy="208.42" r="24.7"/>
			<path class="st1" d="M111.6,236.42c-15.44,0-28-12.56-28-28c0-15.44,12.56-28,28-28c15.44,0,28,12.56,28,28
				C139.61,223.86,127.04,236.42,111.6,236.42z M111.6,187.02c-11.8,0-21.39,9.6-21.39,21.39c0,11.8,9.6,21.39,21.39,21.39
				s21.39-9.6,21.39-21.39C133,196.62,123.4,187.02,111.6,187.02z"/>
		</g>
		<g>
			<g>
				<path class="st6" d="M285.58,194.67c-0.13,0-0.24-0.09-0.24-0.22c0-3.9,0-57.53,0-83.52c0-7.7-6.24-13.93-13.94-13.93H123.79
					c-5.96,0-11.52,3.01-14.76,8.01l-32.3,49.66c-1.76,2.7-4.22,4.87-7.12,6.26l-18.11,8.73c-3.79,1.83-6.2,5.66-6.2,9.87v14.92
					c0,0.13-0.11,0.23-0.24,0.23c-4.28,0-7.75,3.47-7.75,7.75v6.02c0,4.15,3.37,7.52,7.52,7.52h0.46h32.44
					c-1.32-5.95-1.25-12.41,1.3-19.23c4.91-13.15,17.25-22.51,31.28-23.02c19.77-0.72,36.02,15.09,36.02,34.7
					c0,2.6-0.31,5.12-0.85,7.55h61.8c-1.32-5.95-1.25-12.41,1.3-19.23c4.91-13.15,17.25-22.51,31.28-23.02
					c19.77-0.72,36.02,15.09,36.02,34.7c0,2.6-0.31,5.12-0.85,7.55h10.32h0.46c4.15,0,7.52-3.37,7.52-7.52v-6.02
					C293.33,198.14,289.86,194.67,285.58,194.67z"/>
				<path class="st1" d="M285.81,219.27H270.9l0.89-4.02c0.51-2.3,0.77-4.6,0.77-6.83c0-8.61-3.41-16.64-9.61-22.62
					c-6.2-5.98-14.37-9.11-22.98-8.78c-12.43,0.45-23.81,8.84-28.3,20.87c-2.12,5.67-2.5,11.35-1.17,17.36l0.89,4.02h-70.03
					l0.89-4.02c0.51-2.3,0.77-4.6,0.77-6.83c0-8.61-3.41-16.64-9.61-22.62c-6.2-5.97-14.39-9.11-22.98-8.78
					c-12.44,0.45-23.81,8.84-28.3,20.87c-2.12,5.67-2.5,11.35-1.17,17.36l0.89,4.02H44.83c-5.97,0-10.83-4.86-10.83-10.83v-6.02
					c0-5.03,3.38-9.29,7.99-10.62v-12.28c0-5.44,3.17-10.48,8.07-12.84l18.11-8.73c2.36-1.13,4.36-2.89,5.78-5.09l32.3-49.66
					c3.88-5.96,10.43-9.51,17.54-9.51h147.62c9.51,0,17.24,7.73,17.24,17.23v80.87c4.61,1.33,7.99,5.59,7.99,10.62v6.02
					C296.64,214.41,291.78,219.27,285.81,219.27z M278.93,212.66h6.88c2.33,0,4.22-1.89,4.22-4.22v-6.02c0-2.45-1.99-4.45-4.45-4.45
					c-1.95,0-3.54-1.58-3.54-3.53v-83.52c0-5.86-4.77-10.63-10.64-10.63H123.79c-4.86,0-9.34,2.43-12,6.51l-32.3,49.66
					c-2.08,3.21-5.01,5.78-8.46,7.44l-18.11,8.73c-2.63,1.27-4.33,3.97-4.33,6.89v14.92c0,1.95-1.59,3.54-3.54,3.54
					c-2.45,0-4.44,2-4.44,4.45v6.02c0,2.33,1.89,4.22,4.22,4.22h29c-0.67-5.81,0.04-11.55,2.11-17.08
					c5.42-14.5,19.18-24.61,34.25-25.16c10.42-0.38,20.31,3.39,27.81,10.62c7.5,7.23,11.64,16.96,11.64,27.38
					c0,1.4-0.08,2.82-0.25,4.24h53.99c-0.67-5.81,0.04-11.54,2.11-17.08c5.42-14.5,19.18-24.61,34.25-25.16
					c10.42-0.38,20.31,3.39,27.81,10.62c7.5,7.23,11.64,16.96,11.64,27.38C279.17,209.82,279.09,211.24,278.93,212.66z"/>
			</g>
			<g>
				<circle class="st5" cx="241.15" cy="208.42" r="24.7"/>
				<path class="st1" d="M241.15,236.42c-15.44,0-28-12.56-28-28c0-15.44,12.56-28,28-28c15.44,0,28,12.56,28,28
					C269.15,223.86,256.59,236.42,241.15,236.42z M241.15,187.02c-11.8,0-21.39,9.6-21.39,21.39c0,11.8,9.6,21.39,21.39,21.39
					c11.8,0,21.39-9.6,21.39-21.39C262.54,196.62,252.94,187.02,241.15,187.02z"/>
			</g>
		</g>
		<g>
			<path class="st3" d="M94.44,151.89l22.85-35.13c1.44-2.22,3.91-3.56,6.55-3.56h24.06c2.97,0,5.39,2.41,5.39,5.39v34.81
				c0,2.97-2.41,5.39-5.39,5.39H98.18C94.64,158.79,92.51,154.86,94.44,151.89z"/>
			<path class="st1" d="M147.91,162.09H98.18c-2.85,0-5.47-1.56-6.83-4.07c-1.36-2.51-1.24-5.55,0.32-7.94l22.85-35.13
				c2.06-3.17,5.55-5.06,9.32-5.06h24.06c4.79,0,8.69,3.9,8.69,8.69v34.81C156.6,158.19,152.7,162.09,147.91,162.09z M123.85,116.51
				c-1.53,0-2.95,0.77-3.78,2.05l-22.85,35.13c-0.33,0.5-0.17,0.96-0.05,1.18c0.12,0.23,0.42,0.61,1.02,0.61h49.72
				c1.15,0,2.08-0.93,2.08-2.08v-34.81c0-1.15-0.93-2.08-2.08-2.08H123.85z"/>
		</g>
		<g>
			<path class="st3" d="M207.29,158.79h-37.84c-1.26,0-2.28-1.02-2.28-2.28v-41.02c0-1.26,1.02-2.28,2.28-2.28h37.84
				c1.26,0,2.28,1.02,2.28,2.28v41.02C209.57,157.76,208.55,158.79,207.29,158.79z"/>
			<path class="st1" d="M204.18,162.09h-31.64c-4.79,0-8.69-3.9-8.69-8.69v-34.81c0-4.79,3.9-8.69,8.69-8.69h31.64
				c4.79,0,8.69,3.9,8.69,8.69v34.81C212.87,158.19,208.98,162.09,204.18,162.09z M172.54,116.51c-1.15,0-2.08,0.93-2.08,2.08v34.81
				c0,1.15,0.93,2.08,2.08,2.08h31.64c1.15,0,2.08-0.93,2.08-2.08v-34.81c0-1.15-0.93-2.08-2.08-2.08H172.54z"/>
		</g>
		<g>
			<path class="st3" d="M263.56,158.79h-37.84c-1.26,0-2.28-1.02-2.28-2.28v-41.02c0-1.26,1.02-2.28,2.28-2.28h37.84
				c1.26,0,2.28,1.02,2.28,2.28v41.02C265.85,157.76,264.82,158.79,263.56,158.79z"/>
			<path class="st1" d="M260.46,162.09h-31.64c-4.79,0-8.69-3.9-8.69-8.69v-34.81c0-4.79,3.9-8.69,8.69-8.69h31.64
				c4.79,0,8.69,3.9,8.69,8.69v34.81C269.15,158.19,265.25,162.09,260.46,162.09z M228.82,116.51c-1.15,0-2.08,0.93-2.08,2.08v34.81
				c0,1.15,0.93,2.08,2.08,2.08h31.64c1.15,0,2.08-0.93,2.08-2.08v-34.81c0-1.15-0.93-2.08-2.08-2.08H228.82z"/>
		</g>
		<g>
			<path class="st5" d="M295.35,131.14h-10.01v44.8h10.01c4.06,0,7.34-3.29,7.34-7.34v-30.11
				C302.7,134.43,299.41,131.14,295.35,131.14z"/>
			<path class="st1" d="M295.35,179.25h-13.31v-51.41h13.31c5.87,0,10.65,4.78,10.65,10.65v30.11
				C306,174.47,301.22,179.25,295.35,179.25z M288.65,172.64h6.7c2.23,0,4.04-1.81,4.04-4.04v-30.11c0-2.23-1.81-4.04-4.04-4.04
				h-6.7V172.64z"/>
		</g>
		<g>
			<path class="st7" d="M276.28,88.92H175.13c-27.27,0-54.5-2.04-81.46-6.09h0c-5.65-0.85-5.65-9,0-9.85h0
				c26.97-4.05,54.2-6.09,81.46-6.09h101.15c6.08,0,11.02,4.93,11.02,11.02l0,0C287.3,83.98,282.36,88.92,276.28,88.92z"/>
			<path class="st1" d="M276.28,92.22H175.13c-27.34,0-54.91-2.06-81.95-6.13c-4.15-0.63-7.06-3.99-7.06-8.19
				c0-4.2,2.9-7.57,7.06-8.19c27.03-4.07,54.61-6.13,81.95-6.13h101.15c7.9,0,14.32,6.42,14.32,14.32S284.18,92.22,276.28,92.22z
				 M175.13,70.19c-27.02,0-54.26,2.04-80.97,6.05c-1.24,0.19-1.43,1.12-1.43,1.66c0,0.54,0.19,1.47,1.43,1.66
				c26.72,4.02,53.96,6.05,80.97,6.05h101.15c4.25,0,7.71-3.46,7.71-7.71c0-4.25-3.46-7.71-7.71-7.71H175.13z"/>
		</g>
	</g>
	<path class="st4" d="M259.32,76.17L259.32,76.17c0-1.83,1.48-3.3,3.3-3.3h13.05c1.83,0,3.3,1.48,3.3,3.3l0,0
		c0,1.83-1.48,3.3-3.3,3.3h-13.05C260.8,79.48,259.32,78,259.32,76.17z"/>
	<path class="st4" d="M178.53,122.51L178.53,122.51c0-1.83,1.48-3.3,3.3-3.3h13.05c1.83,0,3.3,1.48,3.3,3.3l0,0
		c0,1.83-1.48,3.3-3.3,3.3h-13.05C180.01,125.81,178.53,124.33,178.53,122.51z"/>
	<path class="st4" d="M198.2,170.77L198.2,170.77c0-1.83,1.48-3.3,3.3-3.3h13.05c1.83,0,3.3,1.48,3.3,3.3l0,0
		c0,1.83-1.48,3.3-3.3,3.3H201.5C199.68,174.08,198.2,172.6,198.2,170.77z"/>
	<path class="st4" d="M144.15,170.77L144.15,170.77c0-1.83,1.48-3.3,3.3-3.3h42.78c1.83,0,3.3,1.48,3.3,3.3l0,0
		c0,1.83-1.48,3.3-3.3,3.3h-42.78C145.63,174.08,144.15,172.6,144.15,170.77z"/>
	<path class="st4" d="M234.81,122.51L234.81,122.51c0-1.83,1.48-3.3,3.3-3.3h13.05c1.83,0,3.3,1.48,3.3,3.3l0,0
		c0,1.83-1.48,3.3-3.3,3.3h-13.05C236.29,125.81,234.81,124.33,234.81,122.51z"/>
	<path class="st4" d="M124.88,122.51L124.88,122.51c0-1.83,1.48-3.3,3.3-3.3h13.05c1.83,0,3.3,1.48,3.3,3.3l0,0
		c0,1.83-1.48,3.3-3.3,3.3h-13.05C126.36,125.81,124.88,124.33,124.88,122.51z"/>
	<path class="st4" d="M56.46,178.64L56.46,178.64c-0.85-1.62-0.22-3.61,1.39-4.46l11.56-6.06c1.62-0.85,3.61-0.22,4.46,1.39l0,0
		c0.85,1.62,0.22,3.61-1.39,4.46l-11.56,6.06C59.31,180.88,57.31,180.26,56.46,178.64z"/>
	<path class="st4" d="M192.35,76.17L192.35,76.17c0-1.83,1.48-3.3,3.3-3.3h55.51c1.83,0,3.3,1.48,3.3,3.3l0,0
		c0,1.83-1.48,3.3-3.3,3.3h-55.51C193.83,79.48,192.35,78,192.35,76.17z"/>
</g>
</svg>
